<svg width="175" height="48" viewBox="0 0 175 48" fill="none" xmlns="http://www.w3.org/2000/svg">
<path d="M13.7175 32.1691V2.26318H9.14355V32.1691C9.14355 33.9686 9.86593 35.6944 11.1518 36.9668C12.4376 38.2393 14.1816 38.9541 16 38.9541C17.8185 38.9541 19.5625 38.2393 20.8483 36.9668C22.1341 35.6944 22.8565 33.9686 22.8565 32.1691V11.7039H18.287V32.1691C18.3006 32.4744 18.2517 32.7793 18.143 33.0654C18.0343 33.3514 17.8682 33.6128 17.6547 33.8336C17.4412 34.0544 17.1847 34.2301 16.9007 34.3502C16.6167 34.4703 16.3111 34.5322 16.0023 34.5322C15.6934 34.5322 15.3878 34.4703 15.1038 34.3502C14.8198 34.2301 14.5633 34.0544 14.3498 33.8336C14.1363 33.6128 13.9702 33.3514 13.8616 33.0654C13.7529 32.7793 13.7039 32.4744 13.7175 32.1691Z" fill="#364A5E"/>
<path d="M2.28698 8.87586C3.55004 8.87586 4.57396 7.86263 4.57396 6.61274C4.57396 5.36285 3.55004 4.34961 2.28698 4.34961C1.02391 4.34961 0 5.36285 0 6.61274C0 7.86263 1.02391 8.87586 2.28698 8.87586Z" fill="#F19C22"/>
<path d="M11.4305 4.52626C12.6936 4.52626 13.7175 3.51302 13.7175 2.26312C13.7175 1.01323 12.6936 0 11.4305 0C10.1675 0 9.14355 1.01323 9.14355 2.26312C9.14355 3.51302 10.1675 4.52626 11.4305 4.52626Z" fill="#F19C22"/>
<path d="M20.5741 13.9667C21.8372 13.9667 22.8611 12.9535 22.8611 11.7036C22.8611 10.4537 21.8372 9.44043 20.5741 9.44043C19.311 9.44043 18.2871 10.4537 18.2871 11.7036C18.2871 12.9535 19.311 13.9667 20.5741 13.9667Z" fill="#F19C22"/>
<path d="M29.7128 6.27773C30.9758 6.27773 31.9997 5.26449 31.9997 4.0146C31.9997 2.7647 30.9758 1.75146 29.7128 1.75146C28.4497 1.75146 27.4258 2.7647 27.4258 4.0146C27.4258 5.26449 28.4497 6.27773 29.7128 6.27773Z" fill="#F19C22"/>
<path d="M13.7175 32.1691V2.26318H9.14355V32.1691C9.14355 33.9686 9.86593 35.6944 11.1518 36.9668C12.4376 38.2393 14.1816 38.9541 16 38.9541C17.8185 38.9541 19.5625 38.2393 20.8483 36.9668C22.1341 35.6944 22.8565 33.9686 22.8565 32.1691V11.7039H18.287V32.1691C18.3006 32.4744 18.2517 32.7793 18.143 33.0654C18.0343 33.3514 17.8682 33.6128 17.6547 33.8336C17.4412 34.0544 17.1847 34.2301 16.9007 34.3502C16.6167 34.4703 16.3111 34.5322 16.0023 34.5322C15.6934 34.5322 15.3878 34.4703 15.1038 34.3502C14.8198 34.2301 14.5633 34.0544 14.3498 33.8336C14.1363 33.6128 13.9702 33.3514 13.8616 33.0654C13.7529 32.7793 13.7039 32.4744 13.7175 32.1691Z" fill="#222222"/>
<path d="M4.5739 32.2045V32.1692V6.61306H0.0623514L0.00439453 32.1692C0.00439453 36.3678 1.68986 40.3945 4.69001 43.3633C7.69017 46.3322 11.7592 48.0001 16.0021 48.0001C20.245 48.0001 24.3141 46.3322 27.3142 43.3633C30.3144 40.3945 31.9998 36.3678 31.9998 32.1692V4.01465H27.4526L27.4883 32.1516C27.4883 32.2971 27.4883 32.4251 27.4883 32.5662C27.372 35.5272 26.0894 38.3255 23.9149 40.3626C21.7403 42.3998 18.8465 43.5139 15.8524 43.4666C12.8584 43.4193 10.002 42.2144 7.89418 40.1097C5.78639 38.005 4.59464 35.1676 4.5739 32.2045Z" fill="#222222"/>
<path d="M2.28698 8.87586C3.55004 8.87586 4.57396 7.86263 4.57396 6.61274C4.57396 5.36285 3.55004 4.34961 2.28698 4.34961C1.02391 4.34961 0 5.36285 0 6.61274C0 7.86263 1.02391 8.87586 2.28698 8.87586Z" fill="#F39C12"/>
<path d="M11.4305 4.52626C12.6936 4.52626 13.7175 3.51302 13.7175 2.26312C13.7175 1.01323 12.6936 0 11.4305 0C10.1675 0 9.14355 1.01323 9.14355 2.26312C9.14355 3.51302 10.1675 4.52626 11.4305 4.52626Z" fill="#F39C12"/>
<path d="M20.5741 13.9667C21.8372 13.9667 22.8611 12.9535 22.8611 11.7036C22.8611 10.4537 21.8372 9.44043 20.5741 9.44043C19.311 9.44043 18.2871 10.4537 18.2871 11.7036C18.2871 12.9535 19.311 13.9667 20.5741 13.9667Z" fill="#F39C12"/>
<path d="M29.7128 6.27773C30.9758 6.27773 31.9997 5.26449 31.9997 4.0146C31.9997 2.7647 30.9758 1.75146 29.7128 1.75146C28.4497 1.75146 27.4258 2.7647 27.4258 4.0146C27.4258 5.26449 28.4497 6.27773 29.7128 6.27773Z" fill="#F39C12"/>
<path d="M51.072 31.12C51.072 32.536 50.4 32.8 48.792 32.848V34H55.056V32.848C53.448 32.8 52.704 32.536 52.704 31.12V21.064L63.048 34H64.32V20.008C64.32 18.616 64.992 18.352 66.6 18.304V17.152H60.36V18.304C61.944 18.352 62.688 18.616 62.688 20.008V28.744L53.616 17.152H48.792V18.304C49.872 18.352 50.208 18.64 51.072 19.72V31.12ZM72.438 32.248C71.286 32.248 70.638 31.504 70.638 30.184C70.638 29.272 71.142 28.624 72.03 28.288L74.838 27.208V31.408C74.022 31.984 73.374 32.248 72.438 32.248ZM77.742 25.288C77.742 22.216 76.158 20.896 73.206 20.896C70.446 20.896 68.406 22 68.406 24.088C68.406 24.736 68.622 25.192 69.078 25.504L71.19 25.192C71.07 24.688 71.022 24.28 71.022 23.824C71.022 22.72 71.598 22.144 72.774 22.144C74.358 22.144 74.838 23.2 74.838 24.76V26.032L71.022 27.4C69.414 27.952 67.71 28.72 67.71 30.928C67.71 32.776 68.814 34.216 70.95 34.216C72.774 34.216 74.07 33.064 74.91 32.056C75.198 33.352 75.894 34.24 77.166 34.24C78.174 34.24 79.086 33.808 79.902 32.992L79.758 32.224C79.398 32.32 78.87 32.368 78.654 32.368C77.982 32.368 77.67 31.816 77.67 30.856C77.67 30.112 77.742 25.864 77.742 25.288ZM84.9122 18.304H84.0482C82.9442 19.84 81.6482 20.968 80.3042 21.664V22.576H82.0322V31.12C82.0322 33.328 83.2562 34.24 85.1762 34.24C86.8322 34.24 88.1522 33.616 89.0642 32.632L88.7522 31.888C88.1522 32.2 87.3602 32.392 86.6882 32.392C85.4642 32.392 84.9122 31.936 84.9122 30.664V22.576H88.4402V21.136H84.9122V18.304ZM94.794 20.896H94.122L90.282 22.096V22.672L91.89 23.68V31.552C91.89 32.656 91.218 32.776 90.162 32.92V34H96.522V32.92C95.442 32.776 94.794 32.656 94.794 31.552V20.896ZM93.258 19.456C94.314 19.456 95.082 18.64 95.082 17.656C95.082 16.672 94.314 15.856 93.258 15.856C92.178 15.856 91.41 16.672 91.41 17.656C91.41 18.64 92.178 19.456 93.258 19.456ZM110.64 21.136H105.864V22.192C107.088 22.36 107.544 22.48 107.544 23.056C107.544 23.248 107.496 23.416 107.376 23.752L104.64 30.28L101.976 23.752C101.832 23.44 101.784 23.248 101.784 23.056C101.784 22.48 102.24 22.36 103.488 22.192V21.136H97.1278V22.192C98.1358 22.576 98.2798 22.648 98.5198 23.152L103.608 34.192H104.376L109.248 23.152C109.488 22.624 109.632 22.576 110.64 22.192V21.136ZM117.303 20.896C113.895 20.896 111.303 23.728 111.303 27.976C111.303 31.576 113.535 34.24 117.063 34.24C119.871 34.24 121.695 32.632 122.295 30.304L121.767 29.992C120.903 31.144 119.775 31.936 118.071 31.936C115.527 31.936 113.895 29.992 113.895 27.088H122.271V26.296C122.271 23.2 120.567 20.896 117.303 20.896ZM116.919 22.216C118.671 22.216 119.559 23.656 119.559 25.864H113.967C114.159 23.92 115.191 22.216 116.919 22.216ZM130.987 18.448C135.523 18.448 137.395 21.76 137.395 25.6C137.395 30.304 135.355 32.704 131.971 32.704H131.539C130.003 32.704 129.331 32.416 129.331 31V18.448H130.987ZM124.003 18.304C125.611 18.352 126.283 18.616 126.283 20.008V31.12C126.283 32.536 125.611 32.8 124.003 32.848V34H132.019C136.987 34 140.707 30.832 140.707 25.168C140.707 20.68 137.755 17.152 131.515 17.152H124.003V18.304ZM148.514 34.24C151.85 34.24 154.634 32.56 154.634 29.272C154.634 26.392 152.834 25.096 149.306 23.92C146.474 22.96 145.634 22.288 145.634 20.704C145.634 19.312 146.594 18.232 148.466 18.232C150.77 18.232 151.994 19.864 152.594 22.072H153.746V18.4C152.498 17.536 150.698 16.912 148.634 16.912C145.202 16.912 143.09 18.904 143.09 21.736C143.09 24.568 144.818 25.792 148.178 26.92C151.01 27.88 151.97 28.6 151.97 30.112C151.97 31.936 150.698 32.896 148.682 32.896C146.306 32.896 144.938 31.216 144.218 28.648H142.922L143.114 32.608C144.218 33.496 146.21 34.24 148.514 34.24ZM163.471 18.448C168.007 18.448 169.879 21.76 169.879 25.6C169.879 30.304 167.839 32.704 164.455 32.704H164.023C162.487 32.704 161.815 32.416 161.815 31V18.448H163.471ZM156.487 18.304C158.095 18.352 158.767 18.616 158.767 20.008V31.12C158.767 32.536 158.095 32.8 156.487 32.848V34H164.503C169.471 34 173.191 30.832 173.191 25.168C173.191 20.68 170.239 17.152 163.999 17.152H156.487V18.304Z" fill="#222222"/>
</svg>
