<svg width="28" height="22" viewBox="0 0 28 22" fill="none" xmlns="http://www.w3.org/2000/svg">
<path d="M6.35632 21.1609C4.58621 21.1609 3.08429 20.5441 1.85057 19.3103C0.616858 18.0766 0 16.092 0 13.3563C0 9.92337 0.965517 6.97318 2.89655 4.50575C4.82759 1.98467 7.48276 0.482759 10.8621 0L11.1839 2.57471C9.89655 2.73563 8.60919 3.24521 7.32184 4.10345C6.08812 4.90805 5.47126 5.90038 5.47126 7.08046C5.47126 7.6705 5.60536 8.0728 5.87356 8.28736C6.1954 8.50191 6.67816 8.71647 7.32184 8.93103C10.7548 9.89655 12.4713 11.8812 12.4713 14.8851C12.4713 16.6552 11.908 18.1571 10.7816 19.3908C9.70881 20.5709 8.23372 21.1609 6.35632 21.1609ZM21.8851 21.1609C20.1149 21.1609 18.613 20.5441 17.3793 19.3103C16.1456 18.023 15.5287 16.0115 15.5287 13.2759C15.5287 9.89655 16.4943 6.97318 18.4253 4.50575C20.3563 1.98467 23.0115 0.482759 26.3908 0L26.7126 2.49425C25.3716 2.70881 24.0843 3.21839 22.8506 4.02299C21.6169 4.82759 21 5.81992 21 7C21 7.59004 21.1341 7.99234 21.4023 8.20689C21.7241 8.42145 22.2069 8.63601 22.8506 8.85057C26.2835 9.81609 28 11.8276 28 14.8851C28 16.6552 27.4368 18.1571 26.3103 19.3908C25.2375 20.5709 23.7625 21.1609 21.8851 21.1609Z" fill="#F39C12"/>
</svg>
